<svg width="116" height="161" viewBox="0 0 116 161" fill="none" xmlns="http://www.w3.org/2000/svg">
<rect y="5" width="116" height="149" fill="#D64933"/>
<path d="M30.739 79.799H57.909C65.631 79.799 71.1603 78.4643 74.497 75.795C77.929 73.0303 79.645 68.931 79.645 63.497C79.645 59.8743 79.073 57.0143 77.929 54.917C76.785 52.8197 75.212 51.199 73.21 50.055C71.208 48.911 68.8723 48.196 66.203 47.91C63.629 47.5287 60.8643 47.338 57.909 47.338H30.739V79.799ZM17.154 35.898H54.191C56.3837 35.898 58.7193 35.9457 61.198 36.041C63.772 36.041 66.2983 36.184 68.777 36.47C71.2557 36.6607 73.5437 36.9943 75.641 37.471C77.8337 37.9477 79.6927 38.6627 81.218 39.616C84.5547 41.618 87.367 44.3827 89.655 47.91C92.0383 51.4373 93.23 55.775 93.23 60.923C93.23 66.357 91.8953 71.076 89.226 75.08C86.652 78.9887 82.934 81.8963 78.072 83.803V84.089C84.364 85.4237 89.1783 88.2837 92.515 92.669C95.8517 97.0543 97.52 102.393 97.52 108.685C97.52 112.403 96.8527 116.026 95.518 119.553C94.1833 123.08 92.1813 126.226 89.512 128.991C86.938 131.66 83.6967 133.853 79.788 135.569C75.9747 137.19 71.5417 138 66.489 138H17.154V35.898ZM30.739 126.56H64.773C70.779 126.56 75.4503 124.939 78.787 121.698C82.219 118.457 83.935 113.976 83.935 108.256C83.935 104.919 83.3153 102.155 82.076 99.962C80.8367 97.7693 79.1683 96.0533 77.071 94.814C75.069 93.4793 72.7333 92.5737 70.064 92.097C67.3947 91.525 64.63 91.239 61.77 91.239H30.739V126.56Z" fill="#C6D4FF"/>
<rect x="52" y="24" width="53" height="45" rx="10" fill="#565254"/>
</svg>
