<svg width="637" height="563" viewBox="0 0 637 563" fill="none" xmlns="http://www.w3.org/2000/svg">
<path d="M1.81238 559.792C7.30727 560.185 13.6019 561.989 18.8744 559.593C25.0748 556.774 32.4342 553.503 37.7324 549.315C51.6604 538.308 61.1734 521.252 69.0626 505.713C77.0187 490.041 85.9706 474.993 94.1069 459.416C114.424 420.518 128.31 378.885 146.191 338.884C159.858 308.309 170.697 277.103 189.295 248.984C196.903 237.482 207.85 227.89 218.23 218.951C225.015 213.109 230.436 206.219 237.986 201.29C256.358 189.298 275.575 180.293 295.858 171.856C312.878 164.775 332.427 160.153 350.436 156.39C370.964 152.101 391.248 146.876 411.75 142.621C429.28 138.983 445.674 131.197 462.437 125.21C479.192 119.226 496.741 113.497 512.226 104.506C525.577 96.7536 538.77 88.6418 551.339 79.7112C559.809 73.6931 568.636 68.3451 577.032 62.2999C598.85 46.5905 626.126 28.4641 634.903 2.13391" stroke="white" stroke-width="3" stroke-linecap="round"/>
</svg>
